<svg width="64" height="65" viewBox="0 0 64 65" fill="none" xmlns="http://www.w3.org/2000/svg">
<g filter="url(#filter0_d_20_661)">
<circle cx="25" cy="25" r="25" transform="matrix(-1 0 0 1 57 3)" fill="white"/>
</g>
<path opacity="0.4" d="M41.1754 31.1125L39.9254 29.0375C39.6629 28.575 39.4254 27.7 39.4254 27.1875V24.025C39.4254 19.95 36.1129 16.625 32.0254 16.625C27.9379 16.625 24.6254 19.95 24.6254 24.025V27.1875C24.6254 27.7 24.3879 28.575 24.1254 29.025L22.8629 31.1125C22.3629 31.95 22.2504 32.875 22.5629 33.725C22.8629 34.5625 23.5754 35.2125 24.5004 35.525C26.9254 36.35 29.4754 36.75 32.0254 36.75C34.5754 36.75 37.1254 36.35 39.5504 35.5375C40.4254 35.25 41.1004 34.5875 41.4254 33.725C41.7504 32.8625 41.6629 31.9125 41.1754 31.1125Z" fill="#767676"/>
<path d="M34.8125 17.15C33.95 16.8125 33.0125 16.625 32.025 16.625C31.05 16.625 30.1125 16.8 29.25 17.15C29.7875 16.1375 30.85 15.5 32.025 15.5C33.2125 15.5 34.2625 16.1375 34.8125 17.15Z" fill="#767676"/>
<path d="M35.5376 38.0125C35.0126 39.4625 33.6251 40.5 32.0001 40.5C31.0126 40.5 30.0376 40.1 29.3501 39.3875C28.9501 39.0125 28.6501 38.5125 28.4751 38C28.6376 38.025 28.8001 38.0375 28.9751 38.0625C29.2626 38.1 29.5626 38.1375 29.8626 38.1625C30.5751 38.225 31.3001 38.2625 32.0251 38.2625C32.7376 38.2625 33.4501 38.225 34.1501 38.1625C34.4126 38.1375 34.6751 38.125 34.9251 38.0875C35.1251 38.0625 35.3251 38.0375 35.5376 38.0125Z" fill="#767676"/>
<circle cx="38.4291" cy="20.3314" r="3.53261" fill="#F9B233"/>
<defs>
<filter id="filter0_d_20_661" x="0.333334" y="0.777778" width="63.3333" height="63.3333" filterUnits="userSpaceOnUse" color-interpolation-filters="sRGB">
<feFlood flood-opacity="0" result="BackgroundImageFix"/>
<feColorMatrix in="SourceAlpha" type="matrix" values="0 0 0 0 0 0 0 0 0 0 0 0 0 0 0 0 0 0 127 0" result="hardAlpha"/>
<feOffset dy="4.44444"/>
<feGaussianBlur stdDeviation="3.33333"/>
<feComposite in2="hardAlpha" operator="out"/>
<feColorMatrix type="matrix" values="0 0 0 0 0 0 0 0 0 0 0 0 0 0 0 0 0 0 0.02 0"/>
<feBlend mode="normal" in2="BackgroundImageFix" result="effect1_dropShadow_20_661"/>
<feBlend mode="normal" in="SourceGraphic" in2="effect1_dropShadow_20_661" result="shape"/>
</filter>
</defs>
</svg>
