<svg width="107" height="50" viewBox="0 0 107 50" fill="none" xmlns="http://www.w3.org/2000/svg">
<rect x="4" y="4" width="42" height="42" rx="21" fill="#F9B233"/>
<path d="M78.2499 33.75C78.2499 34.8 78.4124 35.825 78.7124 36.775C73.9124 35.1125 70.2874 30.7 69.9124 25.5375C69.5374 20.05 72.6999 14.925 77.8124 12.775C79.1374 12.225 79.8124 12.625 80.0999 12.9125C80.3749 13.1875 80.7624 13.85 80.2124 15.1125C79.6499 16.4125 79.3749 17.7875 79.3749 19.2125C79.3874 21.7625 80.3874 24.125 82.0124 25.9375C79.7249 27.7625 78.2499 30.5875 78.2499 33.75Z" fill="#A1A1A1"/>
<path opacity="0.4" d="M93.5125 32.15C91.0375 35.5125 87.1125 37.4875 82.925 37.4875C82.725 37.4875 82.525 37.475 82.325 37.4625C81.075 37.4125 79.8625 37.175 78.7125 36.775C78.4125 35.825 78.25 34.8 78.25 33.75C78.25 30.5875 79.725 27.7625 82.0125 25.9375C83.85 28 86.4875 29.3375 89.4 29.4625C90.1875 29.5 90.975 29.4375 91.75 29.3C93.15 29.05 93.7125 29.575 93.9125 29.9125C94.125 30.25 94.35 30.9875 93.5125 32.15Z" fill="#A1A1A1"/>
<path opacity="0.4" d="M25 33.75C29.8325 33.75 33.75 29.8325 33.75 25C33.75 20.1675 29.8325 16.25 25 16.25C20.1675 16.25 16.25 20.1675 16.25 25C16.25 29.8325 20.1675 33.75 25 33.75Z" fill="black"/>
<path d="M25 38.7C24.3125 38.7 23.75 38.1875 23.75 37.5V37.4C23.75 36.7125 24.3125 36.15 25 36.15C25.6875 36.15 26.25 36.7125 26.25 37.4C26.25 38.0875 25.6875 38.7 25 38.7ZM33.925 35.175C33.6 35.175 33.2875 35.05 33.0375 34.8125L32.875 34.65C32.3875 34.1625 32.3875 33.375 32.875 32.8875C33.3625 32.4 34.15 32.4 34.6375 32.8875L34.8 33.05C35.2875 33.5375 35.2875 34.325 34.8 34.8125C34.5625 35.05 34.25 35.175 33.925 35.175ZM16.075 35.175C15.75 35.175 15.4375 35.05 15.1875 34.8125C14.7 34.325 14.7 33.5375 15.1875 33.05L15.35 32.8875C15.8375 32.4 16.625 32.4 17.1125 32.8875C17.6 33.375 17.6 34.1625 17.1125 34.65L16.95 34.8125C16.7125 35.05 16.3875 35.175 16.075 35.175ZM37.5 26.25H37.4C36.7125 26.25 36.15 25.6875 36.15 25C36.15 24.3125 36.7125 23.75 37.4 23.75C38.0875 23.75 38.7 24.3125 38.7 25C38.7 25.6875 38.1875 26.25 37.5 26.25ZM12.6 26.25H12.5C11.8125 26.25 11.25 25.6875 11.25 25C11.25 24.3125 11.8125 23.75 12.5 23.75C13.1875 23.75 13.8 24.3125 13.8 25C13.8 25.6875 13.2875 26.25 12.6 26.25ZM33.7625 17.4875C33.4375 17.4875 33.125 17.3625 32.875 17.125C32.3875 16.6375 32.3875 15.85 32.875 15.3625L33.0375 15.2C33.525 14.7125 34.3125 14.7125 34.8 15.2C35.2875 15.6875 35.2875 16.475 34.8 16.9625L34.6375 17.125C34.4 17.3625 34.0875 17.4875 33.7625 17.4875ZM16.2375 17.4875C15.9125 17.4875 15.6 17.3625 15.35 17.125L15.1875 16.95C14.7 16.4625 14.7 15.675 15.1875 15.1875C15.675 14.7 16.4625 14.7 16.95 15.1875L17.1125 15.35C17.6 15.8375 17.6 16.625 17.1125 17.1125C16.875 17.3625 16.55 17.4875 16.2375 17.4875ZM25 13.8C24.3125 13.8 23.75 13.2875 23.75 12.6V12.5C23.75 11.8125 24.3125 11.25 25 11.25C25.6875 11.25 26.25 11.8125 26.25 12.5C26.25 13.1875 25.6875 13.8 25 13.8Z" fill="black"/>
<rect x="0.555556" y="0.555556" width="105.889" height="48.8889" rx="24.4444" stroke="#A1A1A1" stroke-opacity="0.631373" stroke-width="1.11111"/>
</svg>
