<svg width="24" height="24" viewBox="0 0 24 24" fill="none" xmlns="http://www.w3.org/2000/svg">
<path opacity="0.5" d="M22 12C22 17.523 17.523 22 12 22C6.477 22 2 17.523 2 12C2 6.477 6.477 2 12 2C17.523 2 22 6.477 22 12Z" fill="#2FAC66"/>
<path d="M16.0302 8.97C16.1706 9.11062 16.2495 9.30125 16.2495 9.5C16.2495 9.69875 16.1706 9.88937 16.0302 10.03L11.0302 15.03C10.8895 15.1704 10.6989 15.2493 10.5002 15.2493C10.3014 15.2493 10.1108 15.1704 9.97015 15.03L7.97015 13.03C7.89647 12.9613 7.83736 12.8785 7.79637 12.7865C7.75538 12.6945 7.73334 12.5952 7.73156 12.4945C7.72979 12.3938 7.74831 12.2938 7.78603 12.2004C7.82375 12.107 7.8799 12.0222 7.95112 11.951C8.02233 11.8797 8.10717 11.8236 8.20056 11.7859C8.29394 11.7482 8.39397 11.7296 8.49468 11.7314C8.59538 11.7332 8.69469 11.7552 8.78669 11.7962C8.87869 11.8372 8.96149 11.8963 9.03015 11.97L10.5002 13.44L12.7352 11.204L14.9702 8.97C15.1108 8.82955 15.3014 8.75066 15.5002 8.75066C15.6989 8.75066 15.8895 8.82955 16.0302 8.97Z" fill="#2FAC66"/>
</svg>
