<svg width="30" height="30" viewBox="0 0 30 30" fill="none" xmlns="http://www.w3.org/2000/svg">
<path opacity="0.4" d="M15 27.5C21.9036 27.5 27.5 21.9036 27.5 15C27.5 8.09644 21.9036 2.5 15 2.5C8.09644 2.5 2.5 8.09644 2.5 15C2.5 21.9036 8.09644 27.5 15 27.5Z" fill="#767676"/>
<path d="M21.2498 19.9625C19.6123 19.9625 18.0498 19.2125 16.7998 17.825C18.0373 16.2375 18.8373 14.275 19.0123 12.125H21.2373C21.7498 12.125 22.1748 11.7 22.1748 11.1875C22.1748 10.675 21.7498 10.25 21.2373 10.25H18.1998C18.1748 10.25 18.1498 10.2375 18.1248 10.2375C18.0998 10.2375 18.0748 10.25 18.0498 10.25H15.9373V9.08746C15.9373 8.57496 15.5123 8.14996 14.9998 8.14996C14.4873 8.14996 14.0623 8.57496 14.0623 9.08746V10.25H8.76233C8.24983 10.25 7.82483 10.675 7.82483 11.1875C7.82483 11.7 8.24983 12.125 8.76233 12.125H14.9998H17.1248C16.6623 16.525 13.0873 19.9625 8.7373 19.9625C8.2248 19.9625 7.7998 20.3875 7.7998 20.9C7.7998 21.4125 8.2248 21.8375 8.7373 21.8375C11.3248 21.8375 13.6873 20.8375 15.4998 19.2C17.0873 20.9 19.0998 21.8375 21.2373 21.8375C21.7498 21.8375 22.1748 21.4125 22.1748 20.9C22.1748 20.3875 21.7623 19.9625 21.2498 19.9625Z" fill="#767676"/>
</svg>
