<svg width="29" height="29" viewBox="0 0 29 29" fill="none" xmlns="http://www.w3.org/2000/svg">
<path opacity="0.4" d="M14.4998 26.4625C21.1733 26.4625 26.5832 21.0526 26.5832 14.3792C26.5832 7.70572 21.1733 2.29583 14.4998 2.29583C7.8264 2.29583 2.4165 7.70572 2.4165 14.3792C2.4165 21.0526 7.8264 26.4625 14.4998 26.4625Z" fill="#767676"/>
<path d="M17.231 14.5L15.4064 13.8596V9.76333H15.8414C16.8202 9.76333 17.6177 10.6213 17.6177 11.6725C17.6177 12.1679 18.0285 12.5788 18.5239 12.5788C19.0194 12.5788 19.4302 12.1679 19.4302 11.6725C19.4302 9.61833 17.8231 7.95083 15.8414 7.95083H15.4064V7.25C15.4064 6.75458 14.9956 6.34375 14.5002 6.34375C14.0048 6.34375 13.5939 6.75458 13.5939 7.25V7.95083H12.8085C11.0202 7.95083 9.55811 9.46125 9.55811 11.31C9.55811 13.4729 10.8148 14.1617 11.7694 14.5L13.5939 15.1404V19.2246H13.1589C12.1802 19.2246 11.3827 18.3667 11.3827 17.3154C11.3827 16.82 10.9719 16.4092 10.4764 16.4092C9.98102 16.4092 9.57019 16.82 9.57019 17.3154C9.57019 19.3696 11.1773 21.0371 13.1589 21.0371H13.5939V21.75C13.5939 22.2454 14.0048 22.6562 14.5002 22.6562C14.9956 22.6562 15.4064 22.2454 15.4064 21.75V21.0492H16.1919C17.9802 21.0492 19.4423 19.5388 19.4423 17.69C19.4302 15.515 18.1735 14.8263 17.231 14.5ZM12.3735 12.7963C11.7573 12.5788 11.3827 12.3733 11.3827 11.3221C11.3827 10.4642 12.0231 9.77542 12.8206 9.77542H13.606V13.2312L12.3735 12.7963ZM16.1919 19.2367H15.4064V15.7808L16.6269 16.2038C17.2431 16.4213 17.6177 16.6267 17.6177 17.6779C17.6177 18.5358 16.9773 19.2367 16.1919 19.2367Z" fill="#767676"/>
</svg>
