<svg width="36" height="36" viewBox="0 0 36 36" fill="none" xmlns="http://www.w3.org/2000/svg">
<path opacity="0.4" d="M16.1371 29.572C23.4165 29.572 29.3176 23.6708 29.3176 16.3914C29.3176 9.11201 23.4165 3.21088 16.1371 3.21088C8.85768 3.21088 2.95654 9.11201 2.95654 16.3914C2.95654 23.6708 8.85768 29.572 16.1371 29.572Z" fill="black"/>
<path d="M32.1997 28.0067C31.7169 27.1143 30.6929 26.6169 29.3178 26.6169C28.2792 26.6169 27.3868 27.0412 26.8602 27.7726C26.3335 28.5041 26.2165 29.4842 26.5383 30.4643C27.1674 32.3661 28.2645 32.7903 28.8643 32.8634C28.9521 32.8781 29.0399 32.8781 29.1423 32.8781C29.7859 32.8781 30.7807 32.6001 31.7462 31.1519C32.5215 30.0255 32.6678 28.899 32.1997 28.0067Z" fill="black"/>
</svg>
