<svg width="30" height="30" viewBox="0 0 30 30" fill="none" xmlns="http://www.w3.org/2000/svg">
<path d="M20.9373 4.45V2.5C20.9373 1.9875 20.5123 1.5625 19.9998 1.5625C19.4873 1.5625 19.0623 1.9875 19.0623 2.5V4.375H10.9373V2.5C10.9373 1.9875 10.5123 1.5625 9.9998 1.5625C9.4873 1.5625 9.0623 1.9875 9.0623 2.5V4.45C5.6873 4.7625 4.0498 6.775 3.7998 9.7625C3.7748 10.125 4.0748 10.425 4.4248 10.425H25.5748C25.9373 10.425 26.2373 10.1125 26.1998 9.7625C25.9498 6.775 24.3123 4.7625 20.9373 4.45Z" fill="#767676"/>
<path opacity="0.4" d="M25 12.3C25.6875 12.3 26.25 12.8625 26.25 13.55V21.25C26.25 25 24.375 27.5 20 27.5H10C5.625 27.5 3.75 25 3.75 21.25V13.55C3.75 12.8625 4.3125 12.3 5 12.3H25Z" fill="#767676"/>
<path d="M10.625 18.75C10.3 18.75 9.975 18.6125 9.7375 18.3875C9.5125 18.15 9.375 17.825 9.375 17.5C9.375 17.175 9.5125 16.85 9.7375 16.6125C10.0875 16.2625 10.6375 16.1499 11.1 16.3499C11.2625 16.4124 11.4 16.5 11.5125 16.6125C11.7375 16.85 11.875 17.175 11.875 17.5C11.875 17.825 11.7375 18.15 11.5125 18.3875C11.275 18.6125 10.95 18.75 10.625 18.75Z" fill="#767676"/>
<path d="M15 18.75C14.675 18.75 14.35 18.6125 14.1125 18.3875C13.8875 18.15 13.75 17.825 13.75 17.5C13.75 17.175 13.8875 16.85 14.1125 16.6125C14.225 16.5 14.3625 16.4124 14.525 16.3499C14.9875 16.1499 15.5375 16.2625 15.8875 16.6125C16.1125 16.85 16.25 17.175 16.25 17.5C16.25 17.825 16.1125 18.15 15.8875 18.3875C15.825 18.4375 15.7625 18.4874 15.7 18.5374C15.625 18.5874 15.55 18.625 15.475 18.65C15.4 18.6875 15.325 18.7125 15.25 18.725C15.1625 18.7375 15.0875 18.75 15 18.75Z" fill="#767676"/>
<path d="M19.375 18.75C19.05 18.75 18.725 18.6125 18.4875 18.3875C18.2625 18.15 18.125 17.825 18.125 17.5C18.125 17.175 18.2625 16.85 18.4875 16.6125C18.6125 16.5 18.7375 16.4125 18.9 16.35C19.125 16.25 19.375 16.225 19.625 16.275C19.7 16.2875 19.775 16.3125 19.85 16.35C19.925 16.375 20 16.4125 20.075 16.4625C20.1375 16.5125 20.2 16.5625 20.2625 16.6125C20.4875 16.85 20.625 17.175 20.625 17.5C20.625 17.825 20.4875 18.15 20.2625 18.3875C20.2 18.4375 20.1375 18.4875 20.075 18.5375C20 18.5875 19.925 18.625 19.85 18.65C19.775 18.6875 19.7 18.7125 19.625 18.725C19.5375 18.7375 19.45 18.75 19.375 18.75Z" fill="#767676"/>
<path d="M10.625 23.125C10.4625 23.125 10.3 23.0875 10.15 23.025C9.9875 22.9625 9.8625 22.875 9.7375 22.7625C9.5125 22.525 9.375 22.2 9.375 21.875C9.375 21.55 9.5125 21.225 9.7375 20.9875C9.8625 20.875 9.9875 20.7875 10.15 20.725C10.375 20.625 10.625 20.6 10.875 20.65C10.95 20.6625 11.025 20.6875 11.1 20.725C11.175 20.75 11.25 20.7875 11.325 20.8375C11.3875 20.8875 11.45 20.9375 11.5125 20.9875C11.7375 21.225 11.875 21.55 11.875 21.875C11.875 22.2 11.7375 22.525 11.5125 22.7625C11.45 22.8125 11.3875 22.875 11.325 22.9125C11.25 22.9625 11.175 23 11.1 23.025C11.025 23.0625 10.95 23.0875 10.875 23.1C10.7875 23.1125 10.7125 23.125 10.625 23.125Z" fill="#767676"/>
<path d="M15 23.125C14.675 23.125 14.35 22.9875 14.1125 22.7625C13.8875 22.525 13.75 22.2001 13.75 21.8751C13.75 21.5501 13.8875 21.2251 14.1125 20.9876C14.575 20.5251 15.425 20.5251 15.8875 20.9876C16.1125 21.2251 16.25 21.5501 16.25 21.8751C16.25 22.2001 16.1125 22.525 15.8875 22.7625C15.65 22.9875 15.325 23.125 15 23.125Z" fill="#767676"/>
<path d="M19.375 23.125C19.05 23.125 18.725 22.9875 18.4875 22.7625C18.2625 22.525 18.125 22.2001 18.125 21.8751C18.125 21.5501 18.2625 21.2251 18.4875 20.9876C18.95 20.5251 19.8 20.5251 20.2625 20.9876C20.4875 21.2251 20.625 21.5501 20.625 21.8751C20.625 22.2001 20.4875 22.525 20.2625 22.7625C20.025 22.9875 19.7 23.125 19.375 23.125Z" fill="#767676"/>
</svg>
