<svg width="29" height="29" viewBox="0 0 29 29" fill="none" xmlns="http://www.w3.org/2000/svg">
<path opacity="0.4" d="M10.875 8.69999V20.2879C10.875 24.1667 13.2917 26.5833 17.1583 26.5833H20.2879C24.1546 26.5833 26.5712 24.1667 26.5712 20.3V8.69999C26.5833 4.83332 24.1667 2.41666 20.3 2.41666H17.1583C13.2917 2.41666 10.875 4.83332 10.875 8.69999Z" fill="black"/>
<path d="M6.73065 9.81167L2.68273 13.8596C2.33232 14.21 2.33232 14.79 2.68273 15.1404L6.73065 19.1883C7.08107 19.5388 7.66107 19.5388 8.01148 19.1883C8.3619 18.8379 8.3619 18.2579 8.01148 17.9075L5.51023 15.4063H18.4273C18.9227 15.4063 19.3336 14.9954 19.3336 14.5C19.3336 14.0046 18.9227 13.5938 18.4273 13.5938H5.51023L8.01148 11.0925C8.19273 10.9113 8.27732 10.6817 8.27732 10.4521C8.27732 10.2225 8.19273 9.98084 8.01148 9.81167C7.66107 9.44917 7.09315 9.44917 6.73065 9.81167Z" fill="black"/>
</svg>
