<svg width="29" height="29" viewBox="0 0 29 29" fill="none" xmlns="http://www.w3.org/2000/svg">
<path d="M20.2395 4.30167V2.41667C20.2395 1.92126 19.8287 1.51042 19.3333 1.51042C18.8379 1.51042 18.427 1.92126 18.427 2.41667V4.22917H10.5729V2.41667C10.5729 1.92126 10.162 1.51042 9.66662 1.51042C9.1712 1.51042 8.76037 1.92126 8.76037 2.41667V4.30167C5.49787 4.60375 3.91495 6.54917 3.67328 9.43709C3.64912 9.7875 3.93912 10.0775 4.27745 10.0775H24.7224C25.0729 10.0775 25.3629 9.77542 25.3266 9.43709C25.0849 6.54917 23.502 4.60375 20.2395 4.30167Z" fill="#767676"/>
<path opacity="0.4" d="M24.1667 11.89C24.8313 11.89 25.375 12.4337 25.375 13.0983V20.5417C25.375 24.1667 23.5625 26.5833 19.3333 26.5833H9.66667C5.4375 26.5833 3.625 24.1667 3.625 20.5417V13.0983C3.625 12.4337 4.16875 11.89 4.83333 11.89H24.1667Z" fill="#767676"/>
<path d="M10.2708 18.125C9.95667 18.125 9.6425 17.9921 9.41292 17.7746C9.19542 17.545 9.0625 17.2308 9.0625 16.9167C9.0625 16.6025 9.19542 16.2883 9.41292 16.0587C9.75125 15.7204 10.2829 15.6116 10.73 15.805C10.8871 15.8654 11.02 15.95 11.1287 16.0587C11.3462 16.2883 11.4792 16.6025 11.4792 16.9167C11.4792 17.2308 11.3462 17.545 11.1287 17.7746C10.8992 17.9921 10.585 18.125 10.2708 18.125Z" fill="#767676"/>
<path d="M14.4998 18.125C14.1857 18.125 13.8715 17.9921 13.6419 17.7746C13.4244 17.545 13.2915 17.2308 13.2915 16.9167C13.2915 16.6025 13.4244 16.2883 13.6419 16.0587C13.7507 15.95 13.8836 15.8654 14.0407 15.805C14.4878 15.6116 15.0194 15.7204 15.3578 16.0587C15.5753 16.2883 15.7082 16.6025 15.7082 16.9167C15.7082 17.2308 15.5753 17.545 15.3578 17.7746C15.2973 17.8229 15.2369 17.8712 15.1765 17.9196C15.104 17.9679 15.0315 18.0042 14.959 18.0283C14.8865 18.0646 14.814 18.0888 14.7415 18.1008C14.6569 18.1129 14.5844 18.125 14.4998 18.125Z" fill="#767676"/>
<path d="M18.7293 18.125C18.4152 18.125 18.101 17.9921 17.8714 17.7746C17.6539 17.545 17.521 17.2308 17.521 16.9167C17.521 16.6025 17.6539 16.2884 17.8714 16.0588C17.9922 15.95 18.1131 15.8654 18.2702 15.805C18.4877 15.7083 18.7293 15.6842 18.971 15.7325C19.0435 15.7446 19.116 15.7687 19.1885 15.805C19.261 15.8292 19.3335 15.8654 19.406 15.9138C19.4664 15.9621 19.5268 16.0104 19.5872 16.0588C19.8047 16.2884 19.9377 16.6025 19.9377 16.9167C19.9377 17.2308 19.8047 17.545 19.5872 17.7746C19.5268 17.8229 19.4664 17.8712 19.406 17.9196C19.3335 17.9679 19.261 18.0042 19.1885 18.0284C19.116 18.0646 19.0435 18.0888 18.971 18.1009C18.8864 18.1129 18.8018 18.125 18.7293 18.125Z" fill="#767676"/>
<path d="M10.2708 22.3542C10.1137 22.3542 9.95667 22.3179 9.81167 22.2575C9.65458 22.1971 9.53375 22.1125 9.41292 22.0038C9.19542 21.7742 9.0625 21.46 9.0625 21.1458C9.0625 20.8317 9.19542 20.5175 9.41292 20.2879C9.53375 20.1792 9.65458 20.0946 9.81167 20.0342C10.0292 19.9375 10.2708 19.9133 10.5125 19.9617C10.585 19.9738 10.6575 19.9979 10.73 20.0342C10.8025 20.0583 10.875 20.0946 10.9475 20.1429C11.0079 20.1913 11.0683 20.2396 11.1287 20.2879C11.3462 20.5175 11.4792 20.8317 11.4792 21.1458C11.4792 21.46 11.3462 21.7742 11.1287 22.0038C11.0683 22.0521 11.0079 22.1125 10.9475 22.1487C10.875 22.1971 10.8025 22.2334 10.73 22.2575C10.6575 22.2938 10.585 22.3179 10.5125 22.33C10.4279 22.3421 10.3554 22.3542 10.2708 22.3542Z" fill="#767676"/>
<path d="M14.4998 22.3542C14.1857 22.3542 13.8715 22.2212 13.6419 22.0037C13.4244 21.7741 13.2915 21.46 13.2915 21.1458C13.2915 20.8317 13.4244 20.5175 13.6419 20.2879C14.089 19.8408 14.9107 19.8408 15.3578 20.2879C15.5753 20.5175 15.7082 20.8317 15.7082 21.1458C15.7082 21.46 15.5753 21.7741 15.3578 22.0037C15.1282 22.2212 14.814 22.3542 14.4998 22.3542Z" fill="#767676"/>
<path d="M18.7293 22.3542C18.4152 22.3542 18.101 22.2212 17.8714 22.0037C17.6539 21.7741 17.521 21.46 17.521 21.1458C17.521 20.8317 17.6539 20.5175 17.8714 20.2879C18.3185 19.8408 19.1402 19.8408 19.5872 20.2879C19.8047 20.5175 19.9377 20.8317 19.9377 21.1458C19.9377 21.46 19.8047 21.7741 19.5872 22.0037C19.3577 22.2212 19.0435 22.3542 18.7293 22.3542Z" fill="#767676"/>
</svg>
