<svg width="29" height="29" viewBox="0 0 29 29" fill="none" xmlns="http://www.w3.org/2000/svg">
<path opacity="0.4" d="M18.1371 17.8229V26.5712L3.6371 26.5954V17.8229L3.625 16.0104V8.5429C3.625 7.73332 4.03585 6.98411 4.70043 6.53703L9.53377 3.3108C10.3434 2.76705 11.4066 2.76705 12.2162 3.3108L17.0496 6.53703C17.7262 6.98411 18.125 7.73332 18.125 8.5429V16.0104L18.1371 17.8229Z" fill="#767676"/>
<path d="M26.5832 25.6771H25.0486V22.0521C26.1965 21.6775 27.0303 20.6021 27.0303 19.3333V16.9167C27.0303 15.3338 25.7373 14.0408 24.1544 14.0408C22.5715 14.0408 21.2786 15.3338 21.2786 16.9167V19.3333C21.2786 20.59 22.1002 21.6533 23.224 22.04V25.6771H2.4165C1.92109 25.6771 1.51025 26.0879 1.51025 26.5833C1.51025 27.0788 1.92109 27.4896 2.4165 27.4896H24.0819C24.1061 27.4896 24.1182 27.5017 24.1423 27.5017C24.1665 27.5017 24.1786 27.4896 24.2028 27.4896H26.5832C27.0786 27.4896 27.4894 27.0788 27.4894 26.5833C27.4894 26.0879 27.0786 25.6771 26.5832 25.6771Z" fill="#767676"/>
<path d="M18.1371 17.8229H3.6371L3.625 16.0104H18.125L18.1371 17.8229Z" fill="#767676"/>
<path d="M10.875 27.4896C10.3796 27.4896 9.96875 27.0787 9.96875 26.5833V22.0521C9.96875 21.5567 10.3796 21.1458 10.875 21.1458C11.3704 21.1458 11.7812 21.5567 11.7812 22.0521V26.5833C11.7812 27.0787 11.3704 27.4896 10.875 27.4896Z" fill="#767676"/>
<path d="M10.8748 12.9896C12.0427 12.9896 12.9894 12.0428 12.9894 10.875C12.9894 9.70714 12.0427 8.76041 10.8748 8.76041C9.70699 8.76041 8.76025 9.70714 8.76025 10.875C8.76025 12.0428 9.70699 12.9896 10.8748 12.9896Z" fill="#767676"/>
</svg>
