<svg width="29" height="29" viewBox="0 0 29 29" fill="none" xmlns="http://www.w3.org/2000/svg">
<path d="M8.74817 2.41666H6.45234C3.80609 2.41666 2.4165 3.80624 2.4165 6.44041V8.73624C2.4165 11.3704 3.80609 12.76 6.44025 12.76H8.73609C11.3703 12.76 12.7598 11.3704 12.7598 8.73624V6.44041C12.7719 3.80624 11.3823 2.41666 8.74817 2.41666Z" fill="#040404"/>
<path opacity="0.4" d="M22.5598 2.41666H20.264C17.6298 2.41666 16.2402 3.80624 16.2402 6.44041V8.73624C16.2402 11.3704 17.6298 12.76 20.264 12.76H22.5598C25.194 12.76 26.5836 11.3704 26.5836 8.73624V6.44041C26.5836 3.80624 25.194 2.41666 22.5598 2.41666Z" fill="#040404"/>
<path d="M22.5598 16.2279H20.264C17.6298 16.2279 16.2402 17.6175 16.2402 20.2517V22.5475C16.2402 25.1817 17.6298 26.5712 20.264 26.5712H22.5598C25.194 26.5712 26.5836 25.1817 26.5836 22.5475V20.2517C26.5836 17.6175 25.194 16.2279 22.5598 16.2279Z" fill="#040404"/>
<path opacity="0.4" d="M8.74817 16.2279H6.45234C3.80609 16.2279 2.4165 17.6175 2.4165 20.2517V22.5475C2.4165 25.1937 3.80609 26.5833 6.44025 26.5833H8.73609C11.3703 26.5833 12.7598 25.1937 12.7598 22.5596V20.2637C12.7719 17.6175 11.3823 16.2279 8.74817 16.2279Z" fill="#040404"/>
</svg>
